<svg width="24" height="24" viewBox="0 0 24 24" fill="none" xmlns="http://www.w3.org/2000/svg">
<path d="M23.0191 6.53529C22.9766 6.43245 22.9046 6.34451 22.8121 6.2826C22.7197 6.22069 22.6109 6.18759 22.4997 6.18748H19.5372C19.1623 5.51149 18.6149 4.94705 17.9506 4.55177C17.2864 4.15649 16.5292 3.94451 15.7562 3.93748C15.1949 3.93029 14.6377 4.03539 14.1175 4.24662C13.5973 4.45785 13.1246 4.77094 12.7272 5.16748C12.3176 5.56937 11.9924 6.0491 11.7709 6.57846C11.5494 7.10782 11.4359 7.67613 11.4372 8.24998V9.06186C7.49967 8.12436 4.25593 4.8881 4.21842 4.85435C4.14288 4.77933 4.04759 4.72729 3.94363 4.70428C3.83967 4.68127 3.73132 4.68823 3.63117 4.72437C3.53101 4.7605 3.44317 4.82432 3.37785 4.9084C3.31253 4.99248 3.27242 5.09338 3.26217 5.19935C2.86374 9.62623 4.1453 12.5822 5.29092 14.2828C5.88316 15.1737 6.6132 15.9648 7.45374 16.6265C6.00155 18.4078 3.57811 19.335 3.55186 19.3453C3.4718 19.3749 3.39953 19.4224 3.34053 19.4841C3.28153 19.5458 3.23735 19.6201 3.21133 19.7014C3.18531 19.7827 3.17814 19.8689 3.19036 19.9534C3.20258 20.0378 3.23387 20.1184 3.28186 20.189C3.37467 20.3278 4.29155 21.5625 7.49968 21.5625C14.0509 21.5625 19.5212 16.5 20.0453 9.99936L22.8972 7.14842C22.9759 7.06973 23.0294 6.96948 23.0511 6.86034C23.0728 6.75121 23.0617 6.63809 23.0191 6.53529ZM19.1022 9.35248C19.0053 9.44913 18.947 9.57779 18.9381 9.71436C18.5556 15.7275 13.5306 20.4375 7.49968 20.4375C6.18718 20.4375 5.36592 20.2115 4.86905 19.9875C5.92843 19.455 7.6553 18.405 8.71749 16.8122C8.75985 16.7484 8.78877 16.6768 8.80247 16.6015C8.81617 16.5262 8.81437 16.4489 8.79718 16.3744C8.77981 16.2993 8.74721 16.2286 8.70141 16.1667C8.65562 16.1048 8.59759 16.0529 8.53093 16.0144C8.51874 16.0069 7.29999 15.2775 6.18718 13.6031C4.87468 11.625 4.24749 9.22779 4.31218 6.45748C5.70718 7.63873 8.58436 9.74717 11.9059 10.3012C11.9866 10.3149 12.0693 10.3107 12.1482 10.2891C12.2272 10.2675 12.3004 10.2289 12.3629 10.1761C12.4254 10.1233 12.4756 10.0574 12.51 9.98317C12.5444 9.90892 12.5622 9.82806 12.5622 9.74623V8.24998C12.5613 7.82516 12.6454 7.40445 12.8094 7.01259C12.9735 6.62072 13.2142 6.2656 13.5175 5.9681C13.8095 5.67656 14.1568 5.44628 14.5389 5.29076C14.9211 5.13525 15.3305 5.05764 15.7431 5.06248C17.0022 5.07842 18.1806 5.84717 18.6719 6.97498C18.7156 7.07531 18.7878 7.16068 18.8793 7.22062C18.9709 7.28057 19.078 7.3125 19.1875 7.31248H21.1412L19.1022 9.35248Z" fill="black"/>
</svg>
