<svg width="24" height="24" viewBox="0 0 24 24" fill="none" xmlns="http://www.w3.org/2000/svg">
<path d="M19.9741 19.9481L14.0285 10.605L19.916 4.12498C19.9732 4.07185 20.0188 4.00739 20.0497 3.93569C20.0807 3.86399 20.0964 3.78662 20.0958 3.70853C20.0952 3.63043 20.0784 3.55331 20.0464 3.48208C20.0143 3.41085 19.9678 3.34707 19.9098 3.29479C19.8518 3.24252 19.7835 3.2029 19.7093 3.17846C19.6352 3.15402 19.5567 3.14529 19.479 3.15284C19.4013 3.16038 19.3259 3.18403 19.2579 3.22228C19.1898 3.26052 19.1304 3.31253 19.0835 3.37498L13.406 9.62061L9.47787 3.44811C9.42675 3.36774 9.35607 3.30167 9.27244 3.25608C9.18882 3.2105 9.09498 3.18689 8.99974 3.18748H4.49974C4.39898 3.18753 4.30008 3.21464 4.21338 3.26599C4.12668 3.31733 4.05536 3.39102 4.00688 3.47936C3.9584 3.56769 3.93454 3.66743 3.93779 3.76814C3.94104 3.86885 3.97129 3.96683 4.02537 4.05186L9.97099 13.395L4.08349 19.875C3.99914 19.9873 3.95988 20.1272 3.97345 20.267C3.98702 20.4069 4.05244 20.5366 4.15682 20.6306C4.26121 20.7247 4.39701 20.7762 4.5375 20.7752C4.678 20.7741 4.81301 20.7206 4.91599 20.625L10.5935 14.3794L14.5216 20.5519C14.5727 20.6322 14.6434 20.6983 14.727 20.7439C14.8107 20.7895 14.9045 20.8131 14.9997 20.8125H19.4997C19.6005 20.8124 19.6994 20.7853 19.7861 20.734C19.8728 20.6826 19.9441 20.6089 19.9926 20.5206C20.0411 20.4323 20.0649 20.3325 20.0617 20.2318C20.0584 20.1311 20.0282 20.0331 19.9741 19.9481ZM15.3082 19.6875L5.52443 4.31248H8.6913L18.4751 19.6875H15.3082Z" fill="black"/>
</svg>
